<?xml version="1.0" encoding="UTF-8"?>
<!DOCTYPE svg PUBLIC "-//W3C//DTD SVG 1.1//EN" "http://www.w3.org/Graphics/SVG/1.1/DTD/svg11.dtd">
<svg xmlns="http://www.w3.org/2000/svg" version="1.1" width="771px" height="324px" style="shape-rendering:geometricPrecision; text-rendering:geometricPrecision; image-rendering:optimizeQuality; fill-rule:evenodd; clip-rule:evenodd" xmlns:xlink="http://www.w3.org/1999/xlink">
<g><path style="opacity:0.882" fill="#07134f" d="M 425.5,123.5 C 424.238,117.963 424.238,112.297 425.5,106.5C 426.807,104.777 426.807,102.943 425.5,101C 416.231,99.4621 407.731,97.9621 400,96.5C 387.595,96.7072 376.928,101.041 368,109.5C 367.589,113.23 366.256,116.564 364,119.5C 362.391,127.425 361.224,135.425 360.5,143.5C 354.983,144.182 349.816,145.182 345,146.5C 344.827,152.348 344.327,158.015 343.5,163.5C 343.5,156.833 343.5,150.167 343.5,143.5C 348.695,143.821 353.695,143.487 358.5,142.5C 357.92,107.915 374.92,92.0821 409.5,95C 415.754,95.7836 421.754,97.4502 427.5,100C 428.097,101.062 428.43,102.228 428.5,103.5C 427.065,110.111 426.065,116.777 425.5,123.5 Z"/></g>
<g><path style="opacity:1" fill="#01217f" d="M 425.5,106.5 C 424.883,106.611 424.383,106.944 424,107.5C 423.827,111.541 423.327,115.541 422.5,119.5C 421.833,116.833 421.167,114.167 420.5,111.5C 419.676,114.785 419.176,118.118 419,121.5C 418.581,122.672 417.915,123.672 417,124.5C 411.383,123.044 405.883,123.544 400.5,126C 398.442,129.391 395.776,132.058 392.5,134C 392.629,138.234 393.963,141.9 396.5,145C 404.807,145.031 412.974,145.864 421,147.5C 421.5,155.493 421.666,163.493 421.5,171.5C 415.31,171.177 409.31,171.51 403.5,172.5C 401.453,172.489 399.453,172.156 397.5,171.5C 395.825,171.868 394.825,172.868 394.5,174.5C 393.781,176.091 392.781,177.591 391.5,179C 391.833,179.333 392.167,179.667 392.5,180C 390.996,181.491 390.163,183.324 390,185.5C 389.667,185.167 389.333,184.833 389,184.5C 388.424,186.377 388.591,188.211 389.5,190C 387.028,193.729 386.861,197.562 389,201.5C 391.125,200.149 392.292,200.815 392.5,203.5C 392.661,220.638 392.328,237.971 391.5,255.5C 381.682,256.682 371.682,256.682 361.5,255.5C 360.668,228.336 360.168,201.003 360,173.5C 354.928,172.529 349.762,172.195 344.5,172.5C 343.523,169.713 343.19,166.713 343.5,163.5C 344.327,158.015 344.827,152.348 345,146.5C 349.816,145.182 354.983,144.182 360.5,143.5C 361.224,135.425 362.391,127.425 364,119.5C 366.256,116.564 367.589,113.23 368,109.5C 376.928,101.041 387.595,96.7072 400,96.5C 407.731,97.9621 416.231,99.4621 425.5,101C 426.807,102.943 426.807,104.777 425.5,106.5 Z"/></g>
<g><path style="opacity:1" fill="#012281" d="M 35.5,106.5 C 64.5019,106.333 93.5019,106.5 122.5,107C 124.608,107.36 126.608,108.027 128.5,109C 128.381,112.835 127.381,116.669 125.5,120.5C 127.691,122.208 128.024,124.208 126.5,126.5C 127.325,127.386 128.325,127.719 129.5,127.5C 129.5,130.167 129.5,132.833 129.5,135.5C 108.321,136.235 86.9876,136.902 65.5,137.5C 65.1195,132.912 63.9528,132.578 62,136.5C 61.586,136.043 61.086,135.709 60.5,135.5C 60.0308,139.035 58.5308,142.035 56,144.5C 54.706,142.038 53.206,139.705 51.5,137.5C 51.7189,136.062 52.2189,134.729 53,133.5C 55.3092,132.025 57.4759,130.358 59.5,128.5C 58.8333,127.833 58.1667,127.167 57.5,126.5C 60.3396,124.499 62.173,121.832 63,118.5C 65.8288,120.762 65.9955,123.095 63.5,125.5C 65.0894,128.421 66.5894,131.421 68,134.5C 69.0113,135.337 70.1779,135.67 71.5,135.5C 71.5,133.833 71.5,132.167 71.5,130.5C 72.552,130.649 73.552,130.483 74.5,130C 72.622,129.748 70.622,129.081 68.5,128C 72.6799,123.591 71.6799,120.591 65.5,119C 67.3453,117.872 69.3453,117.372 71.5,117.5C 71.5,116.167 71.5,114.833 71.5,113.5C 69.3453,113.628 67.3453,113.128 65.5,112C 68.5,111.667 71.5,111.333 74.5,111C 70.1794,110.501 65.8461,110.334 61.5,110.5C 61.3184,112.591 61.6518,114.591 62.5,116.5C 60.0858,117.823 57.7525,118.823 55.5,119.5C 54.269,120.651 54.269,121.817 55.5,123C 54.6919,123.308 54.0253,123.808 53.5,124.5C 54.7582,123.984 55.7582,124.65 56.5,126.5C 54.0905,128.576 51.4238,130.242 48.5,131.5C 45.9906,130.079 43.6572,128.412 41.5,126.5C 42.3467,125.155 43.5134,124.155 45,123.5C 45.6667,122.833 45.6667,122.167 45,121.5C 42.6024,122.856 40.1024,124.023 37.5,125C 39.6447,125.743 39.8114,126.576 38,127.5C 35.9906,127.005 33.8239,127.005 31.5,127.5C 31.6116,122.56 30.945,117.727 29.5,113C 29.6301,111.941 30.1301,111.108 31,110.5C 31.7175,111.451 32.5509,111.617 33.5,111C 32.8333,109.667 31.8333,108.667 30.5,108C 31.8989,107.405 33.2322,107.572 34.5,108.5C 35.2975,108.043 35.6309,107.376 35.5,106.5 Z"/></g>
<g><path style="opacity:1" fill="#012284" d="M 27.5,106.5 C 30.1667,106.5 32.8333,106.5 35.5,106.5C 35.6309,107.376 35.2975,108.043 34.5,108.5C 33.2322,107.572 31.8989,107.405 30.5,108C 31.8333,108.667 32.8333,109.667 33.5,111C 32.5509,111.617 31.7175,111.451 31,110.5C 30.1301,111.108 29.6301,111.941 29.5,113C 30.945,117.727 31.6116,122.56 31.5,127.5C 33.8239,127.005 35.9906,127.005 38,127.5C 39.8114,126.576 39.6447,125.743 37.5,125C 40.1024,124.023 42.6024,122.856 45,121.5C 45.6667,122.167 45.6667,122.833 45,123.5C 43.5134,124.155 42.3467,125.155 41.5,126.5C 43.6572,128.412 45.9906,130.079 48.5,131.5C 51.4238,130.242 54.0905,128.576 56.5,126.5C 55.7582,124.65 54.7582,123.984 53.5,124.5C 54.0253,123.808 54.6919,123.308 55.5,123C 54.269,121.817 54.269,120.651 55.5,119.5C 57.7525,118.823 60.0858,117.823 62.5,116.5C 61.6518,114.591 61.3184,112.591 61.5,110.5C 65.8461,110.334 70.1794,110.501 74.5,111C 71.5,111.333 68.5,111.667 65.5,112C 67.3453,113.128 69.3453,113.628 71.5,113.5C 71.5,114.833 71.5,116.167 71.5,117.5C 69.3453,117.372 67.3453,117.872 65.5,119C 71.6799,120.591 72.6799,123.591 68.5,128C 70.622,129.081 72.622,129.748 74.5,130C 73.552,130.483 72.552,130.649 71.5,130.5C 71.5,132.167 71.5,133.833 71.5,135.5C 70.1779,135.67 69.0113,135.337 68,134.5C 66.5894,131.421 65.0894,128.421 63.5,125.5C 65.9955,123.095 65.8288,120.762 63,118.5C 62.173,121.832 60.3396,124.499 57.5,126.5C 58.1667,127.167 58.8333,127.833 59.5,128.5C 57.4759,130.358 55.3092,132.025 53,133.5C 52.2189,134.729 51.7189,136.062 51.5,137.5C 53.206,139.705 54.706,142.038 56,144.5C 58.5308,142.035 60.0308,139.035 60.5,135.5C 61.086,135.709 61.586,136.043 62,136.5C 63.9528,132.578 65.1195,132.912 65.5,137.5C 65.5,138.167 65.5,138.833 65.5,139.5C 63.78,141.658 62.9467,144.325 63,147.5C 58.7827,150.383 57.4494,154.383 59,159.5C 59.6924,160.025 60.1924,160.692 60.5,161.5C 59.6348,161.564 58.6348,161.897 57.5,162.5C 56.6816,165.107 56.1816,167.774 56,170.5C 54.3035,171.364 53.1368,172.697 52.5,174.5C 53.0079,178.619 54.0079,182.619 55.5,186.5C 54.2503,188.79 53.2503,190.957 52.5,193C 54.4408,197.489 55.9408,201.989 57,206.5C 54.3567,207.936 52.5234,210.103 51.5,213C 49.324,213.163 47.4907,213.996 46,215.5C 45.7132,217.891 45.2132,220.224 44.5,222.5C 45.6143,227.446 45.781,232.446 45,237.5C 43.5993,239.192 41.7659,239.859 39.5,239.5C 39.6567,238.127 39.49,236.793 39,235.5C 37.5354,236.369 36.3687,235.869 35.5,234C 35.6448,233.228 35.9781,232.561 36.5,232C 34.9391,231.682 33.7724,230.849 33,229.5C 32.3333,230.167 31.6667,230.833 31,231.5C 30.4873,237.865 30.8206,244.199 32,250.5C 36.4375,251.237 41.1042,251.237 46,250.5C 46.6082,252.066 47.4415,253.4 48.5,254.5C 51.4133,255.241 54.4133,255.741 57.5,256C 55.9656,256.923 54.299,257.423 52.5,257.5C 44.4969,256.928 36.4969,256.262 28.5,255.5C 28.9312,254.707 29.2645,253.873 29.5,253C 28.7312,247.204 28.2312,241.371 28,235.5C 27.5,192.501 27.3333,149.501 27.5,106.5 Z"/></g>
<g><path style="opacity:1" fill="#051e73" d="M 27.5,106.5 C 60.3308,105.336 93.3308,105.169 126.5,106C 128.287,107.319 130.287,108.152 132.5,108.5C 132.5,109.167 132.833,109.5 133.5,109.5C 133.5,109.833 133.5,110.167 133.5,110.5C 131.85,118.641 130.517,126.975 129.5,135.5C 129.5,132.833 129.5,130.167 129.5,127.5C 128.325,127.719 127.325,127.386 126.5,126.5C 128.024,124.208 127.691,122.208 125.5,120.5C 127.381,116.669 128.381,112.835 128.5,109C 126.608,108.027 124.608,107.36 122.5,107C 93.5019,106.5 64.5019,106.333 35.5,106.5C 32.8333,106.5 30.1667,106.5 27.5,106.5 Z"/></g>
<g><path style="opacity:0.983" fill="#051865" d="M 133.5,110.5 C 133.5,118.5 133.5,126.5 133.5,134.5C 132.684,136.144 131.35,137.31 129.5,138C 108.329,138.168 87.3293,138.668 66.5,139.5C 66.1667,139.5 65.8333,139.5 65.5,139.5C 65.5,138.833 65.5,138.167 65.5,137.5C 86.9876,136.902 108.321,136.235 129.5,135.5C 130.517,126.975 131.85,118.641 133.5,110.5 Z"/></g>
<g><path style="opacity:0.093" fill="#041246" d="M 133.5,134.5 C 133.714,136.144 133.38,137.644 132.5,139C 110.503,139.5 88.5025,139.667 66.5,139.5C 87.3293,138.668 108.329,138.168 129.5,138C 131.35,137.31 132.684,136.144 133.5,134.5 Z"/></g>
<g><path style="opacity:0.8" fill="#041048" d="M 298.5,198.5 C 298.401,195.763 298.735,193.096 299.5,190.5C 303.47,184.511 308.803,180.511 315.5,178.5C 321.833,178.5 328.167,178.5 334.5,178.5C 334.5,166.833 334.5,155.167 334.5,143.5C 333.5,143.5 332.5,143.5 331.5,143.5C 319.715,140.971 309.882,144.304 302,153.5C 301.517,154.448 301.351,155.448 301.5,156.5C 299.333,157.646 298,159.479 297.5,162C 296.551,162.617 295.718,162.451 295,161.5C 294.737,155.71 293.904,150.043 292.5,144.5C 281.86,143.625 271.194,143.291 260.5,143.5C 260.5,147.833 260.5,152.167 260.5,156.5C 260.167,156.5 259.833,156.5 259.5,156.5C 259.5,151.833 259.5,147.167 259.5,142.5C 271.186,142.168 282.852,142.501 294.5,143.5C 295.289,149.115 295.789,154.782 296,160.5C 304.395,144.131 317.395,138.131 335,142.5C 335.5,155.162 335.667,167.829 335.5,180.5C 317.839,176.165 305.506,182.165 298.5,198.5 Z"/></g>
<g><path style="opacity:0.242" fill="#08103c" d="M 588.5,159.5 C 587.833,155.5 587.167,151.5 586.5,147.5C 586.64,145.876 585.973,144.71 584.5,144C 574.5,143.333 564.5,143.333 554.5,144C 553.663,145.011 553.33,146.178 553.5,147.5C 552.833,148.5 552.167,149.5 551.5,150.5C 551.232,147.881 551.565,145.381 552.5,143C 564.167,142.333 575.833,142.333 587.5,143C 588.473,148.407 588.807,153.907 588.5,159.5 Z"/></g>
<g><path style="opacity:1" fill="#04144f" d="M 626.5,143.5 C 619.471,143.377 612.471,143.71 605.5,144.5C 605.5,145.5 605.5,146.5 605.5,147.5C 602.715,146.916 601.048,147.916 600.5,150.5C 597.245,153.034 594.411,156.034 592,159.5C 591.517,160.448 591.351,161.448 591.5,162.5C 589.708,162.634 588.042,162.301 586.5,161.5C 586.5,156.833 586.5,152.167 586.5,147.5C 587.167,151.5 587.833,155.5 588.5,159.5C 588.81,160.738 589.31,160.738 590,159.5C 593.836,151.159 600.002,145.493 608.5,142.5C 614.145,141.613 619.812,141.446 625.5,142C 626.056,142.383 626.389,142.883 626.5,143.5 Z"/></g>
<g><path style="opacity:1" fill="#08165a" d="M 687.5,139.5 C 694.394,140.574 701.394,141.741 708.5,143C 709.416,143.278 710.082,143.778 710.5,144.5C 702.122,143.402 693.788,142.568 685.5,142C 680.69,143.549 675.69,144.549 670.5,145C 666.111,147.92 661.444,150.087 656.5,151.5C 659.079,148.865 662.079,146.699 665.5,145C 672.578,142.027 679.911,140.194 687.5,139.5 Z"/></g>
<g><path style="opacity:1" fill="#02217e" d="M 531.5,232.5 C 532.781,235.599 534.614,237.599 537,238.5C 537.5,244.825 537.666,251.158 537.5,257.5C 532.657,258.058 527.823,258.725 523,259.5C 518.577,258.385 514.077,257.385 509.5,256.5C 506.448,255.223 505.115,252.89 505.5,249.5C 503.833,249.5 502.167,249.5 500.5,249.5C 500.539,247.776 500.206,247.443 499.5,248.5C 497.027,244.264 495.694,244.597 495.5,249.5C 491.067,249.714 488.067,251.88 486.5,256C 479.297,258.843 471.797,260.677 464,261.5C 458.996,260.536 454.162,260.536 449.5,261.5C 448.508,261.672 447.842,261.338 447.5,260.5C 448.043,260.44 448.376,260.107 448.5,259.5C 429.511,249.75 423.011,234.417 429,213.5C 433.413,207.271 438.246,201.605 443.5,196.5C 447.331,196.751 450.664,195.584 453.5,193C 456.833,192.667 460.167,192.333 463.5,192C 462.944,191.617 462.611,191.117 462.5,190.5C 474.229,190.912 485.896,190.412 497.5,189C 498.097,187.938 498.43,186.772 498.5,185.5C 497.395,180.344 495.062,175.844 491.5,172C 489.866,171.506 488.199,171.34 486.5,171.5C 484.435,171.483 482.435,171.15 480.5,170.5C 480.611,169.883 480.944,169.383 481.5,169C 469.51,168.609 458.176,171.109 447.5,176.5C 444.618,175.107 443.118,172.773 443,169.5C 442.329,168.748 441.496,168.414 440.5,168.5C 440.11,163.053 439.11,157.72 437.5,152.5C 441.804,150.782 446.137,148.948 450.5,147C 456.326,146.402 461.992,145.235 467.5,143.5C 470.948,143.892 474.114,143.225 477,141.5C 482.24,141.997 487.24,143.33 492,145.5C 492.873,145.265 493.707,144.931 494.5,144.5C 496.5,146.167 498.5,147.833 500.5,149.5C 503.771,146.817 506.771,147.15 509.5,150.5C 508.528,152.636 506.861,153.803 504.5,154C 506.101,154.273 507.601,154.773 509,155.5C 509.333,155.167 509.667,154.833 510,154.5C 511.167,156 512.333,157.5 513.5,159C 511.604,160.065 511.437,160.898 513,161.5C 515.383,160.248 517.383,158.582 519,156.5C 519.5,157 520,157.5 520.5,158C 520.167,159 519.833,160 519.5,161C 521.758,162.93 524.258,164.43 527,165.5C 528.17,168.152 528.336,170.985 527.5,174C 529.34,190.433 530.007,206.933 529.5,223.5C 525.5,224.167 525.5,224.833 529.5,225.5C 528.99,228.388 529.656,230.721 531.5,232.5 Z M 485.5,234.5 C 477.343,238.123 470.176,236.789 464,230.5C 462.798,228.323 462.298,225.989 462.5,223.5C 463.02,219.464 465.02,216.297 468.5,214C 477.263,211.135 486.263,209.968 495.5,210.5C 497.578,220.985 494.245,228.985 485.5,234.5 Z"/></g>
<g><path style="opacity:0.869" fill="#071650" d="M 474.5,139.5 C 488.548,138.42 501.881,140.92 514.5,147C 522.749,152.071 528.082,159.237 530.5,168.5C 526.9,162.82 522.9,157.32 518.5,152C 515.382,150.107 512.049,148.774 508.5,148C 507.5,147 506.5,146 505.5,145C 495.194,142.779 484.861,140.945 474.5,139.5 Z"/></g>
<g><path style="opacity:1" fill="#02217f" d="M 236.5,219.5 C 236.173,224.214 236.507,228.88 237.5,233.5C 240.133,234.301 241.967,235.967 243,238.5C 243.667,244.5 243.667,250.5 243,256.5C 242.5,257 242,257.5 241.5,258C 235.518,258.999 229.518,259.332 223.5,259C 218.912,257.678 215.079,255.178 212,251.5C 211.51,250.207 211.343,248.873 211.5,247.5C 214.389,247.001 215.056,245.501 213.5,243C 215.902,241.529 215.736,240.029 213,238.5C 211.846,239.743 210.512,240.743 209,241.5C 208.517,242.448 208.351,243.448 208.5,244.5C 207.5,244.5 206.5,244.5 205.5,244.5C 205.421,243.07 205.754,241.736 206.5,240.5C 205.975,239.808 205.308,239.308 204.5,239C 206.886,238.716 207.552,237.716 206.5,236C 209.319,234.757 211.986,233.257 214.5,231.5C 215.273,229.187 215.94,226.854 216.5,224.5C 213.722,222.501 211.222,220.168 209,217.5C 207.989,218.337 206.822,218.67 205.5,218.5C 205.151,215.537 206.151,213.204 208.5,211.5C 208.392,210.558 208.059,209.725 207.5,209C 208.981,208.02 210.315,206.853 211.5,205.5C 209.121,202.848 207.288,199.848 206,196.5C 204.233,194.36 202.233,194.027 200,195.5C 196.937,195.065 196.77,194.232 199.5,193C 188.82,191.841 178.32,192.675 168,195.5C 165.152,195.202 162.319,194.869 159.5,194.5C 159.672,193.508 159.338,192.842 158.5,192.5C 161.544,190.989 164.878,190.322 168.5,190.5C 180.538,190.772 192.538,190.438 204.5,189.5C 204.46,184.807 204.127,180.141 203.5,175.5C 200.094,173.292 196.427,171.292 192.5,169.5C 181.811,167.929 171.478,169.096 161.5,173C 158.653,175.384 155.319,176.55 151.5,176.5C 150.013,169.113 147.346,162.113 143.5,155.5C 143.58,153.67 144.413,152.337 146,151.5C 149.291,149.695 152.791,148.695 156.5,148.5C 161.467,148.679 165.8,147.179 169.5,144C 177.433,143.622 185.266,142.789 193,141.5C 200.438,143.311 207.605,145.644 214.5,148.5C 216.053,150.265 216.386,152.098 215.5,154C 217.792,152.899 219.292,153.732 220,156.5C 220.667,155.167 221.333,155.167 222,156.5C 224.479,162.771 226.645,169.104 228.5,175.5C 229.167,174.833 229.833,174.167 230.5,173.5C 232.22,174.934 234.22,175.767 236.5,176C 237.757,190.291 237.757,204.791 236.5,219.5 Z"/></g>
<g><path style="opacity:0.612" fill="#0a1449" d="M 196.5,139.5 C 211.187,140.008 222.853,146.008 231.5,157.5C 226.105,153.286 220.438,149.286 214.5,145.5C 208.702,144.467 203.035,142.967 197.5,141C 196.944,140.617 196.611,140.117 196.5,139.5 Z"/></g>
<g><path style="opacity:1" fill="#061861" d="M 425.5,106.5 C 424.238,112.297 424.238,117.963 425.5,123.5C 424.699,125.042 424.366,126.708 424.5,128.5C 419.477,127.717 414.477,126.717 409.5,125.5C 399.902,127.405 395.902,133.072 397.5,142.5C 405.568,143.18 413.735,143.847 422,144.5C 422.5,153.827 422.666,163.161 422.5,172.5C 416.167,172.5 409.833,172.5 403.5,172.5C 409.31,171.51 415.31,171.177 421.5,171.5C 421.666,163.493 421.5,155.493 421,147.5C 412.974,145.864 404.807,145.031 396.5,145C 393.963,141.9 392.629,138.234 392.5,134C 395.776,132.058 398.442,129.391 400.5,126C 405.883,123.544 411.383,123.044 417,124.5C 417.915,123.672 418.581,122.672 419,121.5C 419.176,118.118 419.676,114.785 420.5,111.5C 421.167,114.167 421.833,116.833 422.5,119.5C 423.327,115.541 423.827,111.541 424,107.5C 424.383,106.944 424.883,106.611 425.5,106.5 Z"/></g>
<g><path style="opacity:0.789" fill="#051758" d="M 132.5,108.5 C 130.287,108.152 128.287,107.319 126.5,106C 93.3308,105.169 60.3308,105.336 27.5,106.5C 26.5011,156.331 26.1678,206.331 26.5,256.5C 25.335,206.335 25.1683,156.002 26,105.5C 61.458,104.182 96.958,104.182 132.5,105.5C 132.5,106.5 132.5,107.5 132.5,108.5 Z"/></g>
<g><path style="opacity:1" fill="#051d71" d="M 301.5,156.5 C 308.095,157.8 308.095,159.134 301.5,160.5C 299.593,164.388 296.593,165.722 292.5,164.5C 291.696,160.837 292.029,157.171 293.5,153.5C 292.781,151.003 291.781,148.669 290.5,146.5C 281.465,147.388 272.465,147.722 263.5,147.5C 263.5,149.167 263.5,150.833 263.5,152.5C 262.732,153.263 262.232,154.263 262,155.5C 261.501,160.489 261.334,165.489 261.5,170.5C 260.514,166.03 260.181,161.363 260.5,156.5C 260.5,152.167 260.5,147.833 260.5,143.5C 271.194,143.291 281.86,143.625 292.5,144.5C 293.904,150.043 294.737,155.71 295,161.5C 295.718,162.451 296.551,162.617 297.5,162C 298,159.479 299.333,157.646 301.5,156.5 Z"/></g>
<g><path style="opacity:0.847" fill="#07134e" d="M 473.5,140.5 C 471.844,142.06 469.844,143.06 467.5,143.5C 461.992,145.235 456.326,146.402 450.5,147C 446.137,148.948 441.804,150.782 437.5,152.5C 439.11,157.72 440.11,163.053 440.5,168.5C 438.238,164.165 436.572,159.498 435.5,154.5C 435.529,152.971 436.196,151.804 437.5,151C 448.697,144.701 460.697,141.201 473.5,140.5 Z"/></g>
<g><path style="opacity:0.894" fill="#071447" d="M 687.5,139.5 C 700.007,138.967 711.673,141.8 722.5,148C 723.381,148.708 724.047,149.542 724.5,150.5C 723.07,150.421 721.736,150.754 720.5,151.5C 717.869,148.183 714.535,145.849 710.5,144.5C 710.082,143.778 709.416,143.278 708.5,143C 701.394,141.741 694.394,140.574 687.5,139.5 Z"/></g>
<g><path style="opacity:1" fill="#012384" d="M 292.5,164.5 C 291.632,166.402 290.632,168.235 289.5,170C 290.09,172.196 290.757,174.362 291.5,176.5C 288.993,178.808 288.326,181.475 289.5,184.5C 288.037,186.631 287.037,188.965 286.5,191.5C 287.664,194.067 288.33,196.734 288.5,199.5C 285.833,199.5 283.167,199.5 280.5,199.5C 280.263,203.273 280.763,206.94 282,210.5C 282.483,209.552 282.649,208.552 282.5,207.5C 283.552,207.351 284.552,207.517 285.5,208C 283.332,213.694 282.999,219.528 284.5,225.5C 284.363,227.107 283.696,228.441 282.5,229.5C 281.193,221.606 280.527,221.606 280.5,229.5C 277.833,229.5 275.167,229.5 272.5,229.5C 272.579,232.271 272.079,234.937 271,237.5C 269.977,236.4 269.477,235.067 269.5,233.5C 270.64,230.581 271.473,227.581 272,224.5C 273.941,228.554 274.775,228.22 274.5,223.5C 273.5,223.5 272.5,223.5 271.5,223.5C 271.393,219.465 271.726,215.465 272.5,211.5C 271.095,206.605 270.095,201.605 269.5,196.5C 270.024,193.604 271.524,192.937 274,194.5C 274.24,191.638 275.407,189.305 277.5,187.5C 275.604,186.534 273.604,186.201 271.5,186.5C 268.896,180.123 268.896,173.789 271.5,167.5C 272.833,167.5 274.167,167.5 275.5,167.5C 275.5,166.167 275.5,164.833 275.5,163.5C 273.019,163.323 271.186,164.323 270,166.5C 269.952,163.671 268.952,161.337 267,159.5C 266.291,163.868 266.458,168.201 267.5,172.5C 266.935,174.405 265.935,176.071 264.5,177.5C 265.758,179.648 265.758,181.815 264.5,184C 264.611,185.722 265.111,185.888 266,184.5C 266.233,186.78 267.066,188.78 268.5,190.5C 267.975,191.192 267.308,191.692 266.5,192C 267.691,202.46 268.524,212.96 269,223.5C 268.586,223.043 268.086,222.709 267.5,222.5C 265.984,217.579 264.651,212.579 263.5,207.5C 262.249,189.158 262.249,170.825 263.5,152.5C 263.5,150.833 263.5,149.167 263.5,147.5C 272.465,147.722 281.465,147.388 290.5,146.5C 291.781,148.669 292.781,151.003 293.5,153.5C 292.029,157.171 291.696,160.837 292.5,164.5 Z"/></g>
<g><path style="opacity:0.595" fill="#070f3c" d="M 358.5,142.5 C 353.695,143.487 348.695,143.821 343.5,143.5C 343.5,150.167 343.5,156.833 343.5,163.5C 343.19,166.713 343.523,169.713 344.5,172.5C 344.5,172.833 344.5,173.167 344.5,173.5C 342.707,173.116 341.707,171.95 341.5,170C 342.46,160.875 342.793,151.708 342.5,142.5C 347.833,142.5 353.167,142.5 358.5,142.5 Z"/></g>
<g><path style="opacity:1" fill="#041c70" d="M 474.5,139.5 C 484.861,140.945 495.194,142.779 505.5,145C 506.5,146 507.5,147 508.5,148C 512.049,148.774 515.382,150.107 518.5,152C 522.9,157.32 526.9,162.82 530.5,168.5C 531.451,169.919 531.784,171.585 531.5,173.5C 531.5,193.167 531.5,212.833 531.5,232.5C 529.656,230.721 528.99,228.388 529.5,225.5C 525.5,224.833 525.5,224.167 529.5,223.5C 530.007,206.933 529.34,190.433 527.5,174C 528.336,170.985 528.17,168.152 527,165.5C 524.258,164.43 521.758,162.93 519.5,161C 519.833,160 520.167,159 520.5,158C 520,157.5 519.5,157 519,156.5C 517.383,158.582 515.383,160.248 513,161.5C 511.437,160.898 511.604,160.065 513.5,159C 512.333,157.5 511.167,156 510,154.5C 509.667,154.833 509.333,155.167 509,155.5C 507.601,154.773 506.101,154.273 504.5,154C 506.861,153.803 508.528,152.636 509.5,150.5C 506.771,147.15 503.771,146.817 500.5,149.5C 498.5,147.833 496.5,146.167 494.5,144.5C 493.707,144.931 492.873,145.265 492,145.5C 487.24,143.33 482.24,141.997 477,141.5C 474.114,143.225 470.948,143.892 467.5,143.5C 469.844,143.06 471.844,142.06 473.5,140.5C 473.5,139.833 473.833,139.5 474.5,139.5 Z"/></g>
<g><path style="opacity:1" fill="#081b64" d="M 586.5,147.5 C 586.5,152.167 586.5,156.833 586.5,161.5C 585.325,161.719 584.325,161.386 583.5,160.5C 584.767,156.572 585.267,152.572 585,148.5C 584.25,147.874 583.416,147.374 582.5,147C 573.541,145.569 564.541,145.235 555.5,146C 554.956,146.717 554.289,147.217 553.5,147.5C 553.33,146.178 553.663,145.011 554.5,144C 564.5,143.333 574.5,143.333 584.5,144C 585.973,144.71 586.64,145.876 586.5,147.5 Z"/></g>
<g><path style="opacity:1" fill="#022280" d="M 710.5,144.5 C 714.535,145.849 717.869,148.183 720.5,151.5C 721.736,150.754 723.07,150.421 724.5,150.5C 729.145,153.145 732.812,156.812 735.5,161.5C 736.698,164.426 737.698,167.426 738.5,170.5C 739.686,174.547 741.186,178.547 743,182.5C 743.753,187.375 743.586,192.208 742.5,197C 743.546,201.11 744.213,205.277 744.5,209.5C 725.659,209.17 706.993,209.503 688.5,210.5C 682.158,210.334 675.825,210.5 669.5,211C 668.409,213.064 668.242,215.231 669,217.5C 669.417,218.756 670.25,219.423 671.5,219.5C 671.738,223.138 673.404,225.971 676.5,228C 679.761,230.796 683.427,232.796 687.5,234C 694.5,234.667 701.5,234.667 708.5,234C 712.646,232.063 716.979,230.729 721.5,230C 723.618,228.951 725.284,227.451 726.5,225.5C 728.792,225.244 730.959,225.577 733,226.5C 734.619,231.365 736.619,236.032 739,240.5C 739.949,242.093 741.115,243.426 742.5,244.5C 742.5,245.833 742.5,247.167 742.5,248.5C 738.633,250.717 734.299,251.883 729.5,252C 728.743,253.512 727.743,254.846 726.5,256C 718.618,257.718 710.951,259.885 703.5,262.5C 703.5,263.167 703.167,263.5 702.5,263.5C 702.389,262.883 702.056,262.383 701.5,262C 695.5,261.667 689.5,261.333 683.5,261C 673.388,257.444 663.388,253.61 653.5,249.5C 648.472,243.466 643.805,237.133 639.5,230.5C 638.242,224.765 636.742,219.098 635,213.5C 634.333,206.167 634.333,198.833 635,191.5C 638.097,184.972 639.93,177.972 640.5,170.5C 645.137,163.663 650.47,157.33 656.5,151.5C 661.444,150.087 666.111,147.92 670.5,145C 675.69,144.549 680.69,143.549 685.5,142C 693.788,142.568 702.122,143.402 710.5,144.5 Z M 669.5,188.5 C 669.5,188.167 669.5,187.833 669.5,187.5C 673.272,173.104 682.606,166.937 697.5,169C 705.945,172.715 710.278,179.215 710.5,188.5C 696.708,188.579 683.042,188.579 669.5,188.5 Z"/></g>
<g><path style="opacity:0.454" fill="#060f38" d="M 623.5,179.5 C 624.822,179.67 625.989,179.337 627,178.5C 627.826,166.659 627.659,154.993 626.5,143.5C 626.389,142.883 626.056,142.383 625.5,142C 619.812,141.446 614.145,141.613 608.5,142.5C 609.263,141.732 610.263,141.232 611.5,141C 616.5,140.333 621.5,140.333 626.5,141C 627.833,141.667 628.833,142.667 629.5,144C 628.512,156.086 628.178,168.253 628.5,180.5C 626.585,180.784 624.919,180.451 623.5,179.5 Z"/></g>
<g><path style="opacity:0.682" fill="#000b45" d="M 553.5,147.5 C 553.5,152.833 553.5,158.167 553.5,163.5C 552.833,173.5 552.167,183.5 551.5,193.5C 551.5,179.167 551.5,164.833 551.5,150.5C 552.167,149.5 552.833,148.5 553.5,147.5 Z"/></g>
<g><path style="opacity:0.043" fill="#041340" d="M 133.5,109.5 C 132.833,109.5 132.5,109.167 132.5,108.5C 132.5,107.5 132.5,106.5 132.5,105.5C 96.958,104.182 61.458,104.182 26,105.5C 25.1683,156.002 25.335,206.335 26.5,256.5C 26.5,257.167 26.5,257.833 26.5,258.5C 38.3262,259.66 50.3262,259.826 62.5,259C 63.6906,258.302 64.6906,257.469 65.5,256.5C 65.67,257.822 65.3366,258.989 64.5,260C 51.258,260.822 38.0914,260.655 25,259.5C 24.3333,207.5 24.3333,155.5 25,103.5C 58.0951,102.338 91.2618,102.171 124.5,103C 127.167,103.333 129.833,103.667 132.5,104C 133.406,105.699 133.739,107.533 133.5,109.5 Z"/></g>
<g><path style="opacity:1" fill="#051c6f" d="M 196.5,139.5 C 196.611,140.117 196.944,140.617 197.5,141C 203.035,142.967 208.702,144.467 214.5,145.5C 220.438,149.286 226.105,153.286 231.5,157.5C 232.167,157.5 232.5,157.833 232.5,158.5C 232.34,160.199 232.506,161.866 233,163.5C 235.529,167.284 237.362,171.284 238.5,175.5C 239.457,186.783 239.79,198.116 239.5,209.5C 238.676,213.312 238.176,217.312 238,221.5C 237.722,220.584 237.222,219.918 236.5,219.5C 237.757,204.791 237.757,190.291 236.5,176C 234.22,175.767 232.22,174.934 230.5,173.5C 229.833,174.167 229.167,174.833 228.5,175.5C 226.645,169.104 224.479,162.771 222,156.5C 221.333,155.167 220.667,155.167 220,156.5C 219.292,153.732 217.792,152.899 215.5,154C 216.386,152.098 216.053,150.265 214.5,148.5C 207.605,145.644 200.438,143.311 193,141.5C 185.266,142.789 177.433,143.622 169.5,144C 165.8,147.179 161.467,148.679 156.5,148.5C 158.96,147.109 161.626,145.942 164.5,145C 165.252,144.329 165.586,143.496 165.5,142.5C 175.654,140.135 185.988,139.135 196.5,139.5 Z"/></g>
<g><path style="opacity:0.435" fill="#040e4b" d="M 656.5,151.5 C 650.47,157.33 645.137,163.663 640.5,170.5C 643.667,162.334 649,156 656.5,151.5 Z"/></g>
<g><path style="opacity:1" fill="#022280" d="M 65.5,139.5 C 65.5,149.167 65.5,158.833 65.5,168.5C 65.5,168.833 65.5,169.167 65.5,169.5C 65.5,169.833 65.5,170.167 65.5,170.5C 68.6414,171.321 71.9748,171.821 75.5,172C 76.3366,173.011 76.67,174.178 76.5,175.5C 77.5,175.5 78.5,175.5 79.5,175.5C 79.5,174.5 79.5,173.5 79.5,172.5C 89.3132,172.891 98.9798,173.058 108.5,173C 109.668,174.406 109.335,175.572 107.5,176.5C 108.833,177.833 110.167,177.833 111.5,176.5C 110.54,175.188 110.706,173.854 112,172.5C 112.526,174.55 113.359,176.383 114.5,178C 113.426,178.739 112.759,179.739 112.5,181C 112.384,183.399 112.717,185.899 113.5,188.5C 112.453,190.056 111.786,191.723 111.5,193.5C 113.882,192.454 116.215,192.454 118.5,193.5C 119.404,194.209 119.737,195.209 119.5,196.5C 119.181,200.3 118.181,200.466 116.5,197C 115.833,196.333 115.167,196.333 114.5,197C 113.91,198.509 113.244,200.009 112.5,201.5C 108.349,200.801 104.182,200.134 100,199.5C 93.1452,200.511 85.9785,200.677 78.5,200C 79.731,198.817 79.731,197.651 78.5,196.5C 77.5481,198.045 77.2148,199.712 77.5,201.5C 73.8183,201.335 70.1516,201.501 66.5,202C 65.2617,202.69 65.2617,203.19 66.5,203.5C 66.5,204.167 66.1667,204.5 65.5,204.5C 63.8413,220.479 62.8413,236.813 62.5,253.5C 59.9528,252.066 57.6195,250.4 55.5,248.5C 52.9088,250.281 50.5755,252.281 48.5,254.5C 47.4415,253.4 46.6082,252.066 46,250.5C 41.1042,251.237 36.4375,251.237 32,250.5C 30.8206,244.199 30.4873,237.865 31,231.5C 31.6667,230.833 32.3333,230.167 33,229.5C 33.7724,230.849 34.9391,231.682 36.5,232C 35.9781,232.561 35.6448,233.228 35.5,234C 36.3687,235.869 37.5354,236.369 39,235.5C 39.49,236.793 39.6567,238.127 39.5,239.5C 41.7659,239.859 43.5993,239.192 45,237.5C 45.781,232.446 45.6143,227.446 44.5,222.5C 45.2132,220.224 45.7132,217.891 46,215.5C 47.4907,213.996 49.324,213.163 51.5,213C 52.5234,210.103 54.3567,207.936 57,206.5C 55.9408,201.989 54.4408,197.489 52.5,193C 53.2503,190.957 54.2503,188.79 55.5,186.5C 54.0079,182.619 53.0079,178.619 52.5,174.5C 53.1368,172.697 54.3035,171.364 56,170.5C 56.1816,167.774 56.6816,165.107 57.5,162.5C 58.6348,161.897 59.6348,161.564 60.5,161.5C 60.1924,160.692 59.6924,160.025 59,159.5C 57.4494,154.383 58.7827,150.383 63,147.5C 62.9467,144.325 63.78,141.658 65.5,139.5 Z"/></g>
<g><path style="opacity:1" fill="#051666" d="M 331.5,143.5 C 332.5,143.5 333.5,143.5 334.5,143.5C 334.5,155.167 334.5,166.833 334.5,178.5C 328.167,178.5 321.833,178.5 315.5,178.5C 321.401,177.635 327.401,176.635 333.5,175.5C 333.081,170.65 332.414,165.817 331.5,161C 332.672,155.15 332.672,149.316 331.5,143.5 Z"/></g>
<g><path style="opacity:1" fill="#042076" d="M 626.5,143.5 C 626.667,154.838 626.5,166.172 626,177.5C 618.501,178.182 611.001,178.849 603.5,179.5C 601.424,177.33 601.257,174.997 603,172.5C 605.721,171.548 608.555,170.048 611.5,168C 608.2,167.433 608.034,165.933 611,163.5C 612.356,164.38 613.856,164.714 615.5,164.5C 613.163,168.716 614.497,171.882 619.5,174C 619.167,174.333 618.833,174.667 618.5,175C 619.6,175.432 620.267,174.932 620.5,173.5C 620.182,172.353 619.516,171.519 618.5,171C 618.973,167.688 619.306,164.354 619.5,161C 619.095,160.055 618.428,159.388 617.5,159C 621.217,156.321 621.384,153.488 618,150.5C 617.505,148.527 617.338,146.527 617.5,144.5C 613.821,144.724 610.154,145.058 606.5,145.5C 606.5,146.5 606.5,147.5 606.5,148.5C 604.142,148.253 602.142,148.919 600.5,150.5C 601.048,147.916 602.715,146.916 605.5,147.5C 605.5,146.5 605.5,145.5 605.5,144.5C 612.471,143.71 619.471,143.377 626.5,143.5 Z"/></g>
<g><path style="opacity:0.878" fill="#070d41" d="M 232.5,158.5 C 236.442,163.403 238.442,169.07 238.5,175.5C 237.362,171.284 235.529,167.284 233,163.5C 232.506,161.866 232.34,160.199 232.5,158.5 Z"/></g>
<g><path style="opacity:1" fill="#02217e" d="M 331.5,143.5 C 332.672,149.316 332.672,155.15 331.5,161C 332.414,165.817 333.081,170.65 333.5,175.5C 327.401,176.635 321.401,177.635 315.5,178.5C 308.803,180.511 303.47,184.511 299.5,190.5C 298.043,192.242 296.876,194.242 296,196.5C 295.5,216.831 295.333,237.164 295.5,257.5C 285.494,257.666 275.494,257.5 265.5,257C 264.234,256.691 263.067,256.191 262,255.5C 261.5,227.169 261.333,198.835 261.5,170.5C 261.334,165.489 261.501,160.489 262,155.5C 262.232,154.263 262.732,153.263 263.5,152.5C 262.249,170.825 262.249,189.158 263.5,207.5C 264.651,212.579 265.984,217.579 267.5,222.5C 268.086,222.709 268.586,223.043 269,223.5C 268.524,212.96 267.691,202.46 266.5,192C 267.308,191.692 267.975,191.192 268.5,190.5C 267.066,188.78 266.233,186.78 266,184.5C 265.111,185.888 264.611,185.722 264.5,184C 265.758,181.815 265.758,179.648 264.5,177.5C 265.935,176.071 266.935,174.405 267.5,172.5C 266.458,168.201 266.291,163.868 267,159.5C 268.952,161.337 269.952,163.671 270,166.5C 271.186,164.323 273.019,163.323 275.5,163.5C 275.5,164.833 275.5,166.167 275.5,167.5C 274.167,167.5 272.833,167.5 271.5,167.5C 268.896,173.789 268.896,180.123 271.5,186.5C 273.604,186.201 275.604,186.534 277.5,187.5C 275.407,189.305 274.24,191.638 274,194.5C 271.524,192.937 270.024,193.604 269.5,196.5C 270.095,201.605 271.095,206.605 272.5,211.5C 271.726,215.465 271.393,219.465 271.5,223.5C 272.5,223.5 273.5,223.5 274.5,223.5C 274.775,228.22 273.941,228.554 272,224.5C 271.473,227.581 270.64,230.581 269.5,233.5C 269.477,235.067 269.977,236.4 271,237.5C 272.079,234.937 272.579,232.271 272.5,229.5C 275.167,229.5 277.833,229.5 280.5,229.5C 280.527,221.606 281.193,221.606 282.5,229.5C 283.696,228.441 284.363,227.107 284.5,225.5C 282.999,219.528 283.332,213.694 285.5,208C 284.552,207.517 283.552,207.351 282.5,207.5C 282.649,208.552 282.483,209.552 282,210.5C 280.763,206.94 280.263,203.273 280.5,199.5C 283.167,199.5 285.833,199.5 288.5,199.5C 288.33,196.734 287.664,194.067 286.5,191.5C 287.037,188.965 288.037,186.631 289.5,184.5C 288.326,181.475 288.993,178.808 291.5,176.5C 290.757,174.362 290.09,172.196 289.5,170C 290.632,168.235 291.632,166.402 292.5,164.5C 296.593,165.722 299.593,164.388 301.5,160.5C 308.095,159.134 308.095,157.8 301.5,156.5C 301.351,155.448 301.517,154.448 302,153.5C 309.882,144.304 319.715,140.971 331.5,143.5 Z"/></g>
<g><path style="opacity:0.35" fill="#0a133e" d="M 65.5,169.5 C 65.5,169.167 65.5,168.833 65.5,168.5C 84.1786,168.167 102.845,168.5 121.5,169.5C 122.791,170.527 122.791,171.527 121.5,172.5C 120.596,171.791 120.263,170.791 120.5,169.5C 102.167,169.5 83.8333,169.5 65.5,169.5 Z"/></g>
<g><path style="opacity:0.867" fill="#06114c" d="M 165.5,142.5 C 165.586,143.496 165.252,144.329 164.5,145C 161.626,145.942 158.96,147.109 156.5,148.5C 152.791,148.695 149.291,149.695 146,151.5C 144.413,152.337 143.58,153.67 143.5,155.5C 147.346,162.113 150.013,169.113 151.5,176.5C 155.319,176.55 158.653,175.384 161.5,173C 171.478,169.096 181.811,167.929 192.5,169.5C 196.427,171.292 200.094,173.292 203.5,175.5C 204.127,180.141 204.46,184.807 204.5,189.5C 192.538,190.438 180.538,190.772 168.5,190.5C 179.196,189.043 190.029,188.043 201,187.5C 203.247,183.03 202.081,178.53 197.5,174C 189.449,170.229 181.116,169.562 172.5,172C 164.623,174.4 157.123,177.566 150,181.5C 147.931,172.96 145.264,164.627 142,156.5C 141.333,155.167 141.333,153.833 142,152.5C 149.204,147.709 157.037,144.376 165.5,142.5 Z"/></g>
<g><path style="opacity:0.71" fill="#030f4c" d="M 440.5,168.5 C 441.496,168.414 442.329,168.748 443,169.5C 443.118,172.773 444.618,175.107 447.5,176.5C 458.176,171.109 469.51,168.609 481.5,169C 480.944,169.383 480.611,169.883 480.5,170.5C 469.999,170.78 459.999,173.113 450.5,177.5C 447.803,178.63 445.137,178.63 442.5,177.5C 441.422,174.598 440.756,171.598 440.5,168.5 Z"/></g>
<g><path style="opacity:0.867" fill="#050f44" d="M 735.5,161.5 C 739.509,166.177 742.509,171.511 744.5,177.5C 743.504,177.586 742.671,177.252 742,176.5C 741.4,174.09 740.234,172.09 738.5,170.5C 737.698,167.426 736.698,164.426 735.5,161.5 Z"/></g>
<g><path style="opacity:0.845" fill="#08114a" d="M 65.5,170.5 C 65.5,170.167 65.5,169.833 65.5,169.5C 83.8333,169.5 102.167,169.5 120.5,169.5C 120.263,170.791 120.596,171.791 121.5,172.5C 122.747,181.55 122.747,190.55 121.5,199.5C 121.167,199.5 120.833,199.5 120.5,199.5C 120.737,198.209 120.404,197.209 119.5,196.5C 119.737,195.209 119.404,194.209 118.5,193.5C 119.434,185.889 119.767,178.222 119.5,170.5C 101.5,170.5 83.5,170.5 65.5,170.5 Z"/></g>
<g><path style="opacity:0.504" fill="#050c3f" d="M 397.5,142.5 C 406.418,142.183 415.251,142.516 424,143.5C 424.667,153.167 424.667,162.833 424,172.5C 422.915,173.293 421.748,173.96 420.5,174.5C 414.896,173.546 409.229,173.212 403.5,173.5C 403.5,173.167 403.5,172.833 403.5,172.5C 409.833,172.5 416.167,172.5 422.5,172.5C 422.666,163.161 422.5,153.827 422,144.5C 413.735,143.847 405.568,143.18 397.5,142.5 Z"/></g>
<g><path style="opacity:0.369" fill="#051047" d="M 486.5,171.5 C 488.199,171.34 489.866,171.506 491.5,172C 495.062,175.844 497.395,180.344 498.5,185.5C 498.43,186.772 498.097,187.938 497.5,189C 485.896,190.412 474.229,190.912 462.5,190.5C 473.289,188.92 484.289,188.087 495.5,188C 496.837,180.177 493.837,174.677 486.5,171.5 Z"/></g>
<g><path style="opacity:1" fill="#02227f" d="M 603.5,179.5 C 603.5,179.833 603.5,180.167 603.5,180.5C 601.131,180.149 598.797,179.982 596.5,180C 595.751,181.734 595.251,183.567 595,185.5C 593.249,188.67 591.249,191.67 589,194.5C 587.654,200.398 586.487,206.398 585.5,212.5C 587.363,222.094 587.863,231.76 587,241.5C 583.61,243.555 582.777,246.388 584.5,250C 583.971,251.559 583.304,253.059 582.5,254.5C 583.376,255.251 584.376,255.751 585.5,256C 583.567,256.783 582.067,256.283 581,254.5C 580.242,252.231 580.409,250.064 581.5,248C 580.317,244.954 578.984,242.12 577.5,239.5C 578.406,243.562 577.739,247.395 575.5,251C 576.406,252.699 576.739,254.533 576.5,256.5C 571.261,257.037 566.261,256.37 561.5,254.5C 559.092,257.265 556.426,257.765 553.5,256C 554.831,239.402 554.831,222.902 553.5,206.5C 553.5,192.167 553.5,177.833 553.5,163.5C 553.5,158.167 553.5,152.833 553.5,147.5C 554.289,147.217 554.956,146.717 555.5,146C 564.541,145.235 573.541,145.569 582.5,147C 583.416,147.374 584.25,147.874 585,148.5C 585.267,152.572 584.767,156.572 583.5,160.5C 584.325,161.386 585.325,161.719 586.5,161.5C 588.042,162.301 589.708,162.634 591.5,162.5C 591.351,161.448 591.517,160.448 592,159.5C 594.411,156.034 597.245,153.034 600.5,150.5C 602.142,148.919 604.142,148.253 606.5,148.5C 606.5,147.5 606.5,146.5 606.5,145.5C 610.154,145.058 613.821,144.724 617.5,144.5C 617.338,146.527 617.505,148.527 618,150.5C 621.384,153.488 621.217,156.321 617.5,159C 618.428,159.388 619.095,160.055 619.5,161C 619.306,164.354 618.973,167.688 618.5,171C 619.516,171.519 620.182,172.353 620.5,173.5C 620.267,174.932 619.6,175.432 618.5,175C 618.833,174.667 619.167,174.333 619.5,174C 614.497,171.882 613.163,168.716 615.5,164.5C 613.856,164.714 612.356,164.38 611,163.5C 608.034,165.933 608.2,167.433 611.5,168C 608.555,170.048 605.721,171.548 603,172.5C 601.257,174.997 601.424,177.33 603.5,179.5 Z"/></g>
<g><path style="opacity:1" fill="#012485" d="M 577.5,239.5 C 573.515,239.629 572.182,241.463 573.5,245C 569.966,248.568 568.966,248.068 570.5,243.5C 567.261,243.587 564.261,242.92 561.5,241.5C 560.259,243.738 559.259,245.738 558.5,247.5C 557.398,244.81 557.564,242.143 559,239.5C 560.388,240.554 561.888,240.72 563.5,240C 563.767,237.31 565.101,234.81 567.5,232.5C 566,232.167 564.5,231.833 563,231.5C 560.397,231.965 557.897,232.632 555.5,233.5C 555.666,219.321 555.333,205.155 554.5,191C 554.931,180.151 555.598,169.318 556.5,158.5C 557.298,160.078 557.798,161.744 558,163.5C 558.833,162.5 559.667,161.5 560.5,160.5C 565.087,163.955 570.254,165.955 576,166.5C 578.749,166.026 581.249,165.026 583.5,163.5C 585.776,164.213 588.109,164.713 590.5,165C 592.668,169.511 595.668,173.344 599.5,176.5C 596.251,178.222 594.418,177.222 594,173.5C 586.866,174.531 579.699,175.531 572.5,176.5C 572.91,181.32 572.91,186.154 572.5,191C 573.126,191.75 573.626,192.584 574,193.5C 575.405,190.381 575.905,187.048 575.5,183.5C 577.492,183.328 579.158,183.995 580.5,185.5C 581.273,187.813 581.94,190.146 582.5,192.5C 582.079,196.777 581.912,201.11 582,205.5C 580.89,207.037 579.39,207.703 577.5,207.5C 577.5,218.167 577.5,228.833 577.5,239.5 Z"/></g>
<g><path style="opacity:1" fill="#031f76" d="M 65.5,170.5 C 83.5,170.5 101.5,170.5 119.5,170.5C 119.767,178.222 119.434,185.889 118.5,193.5C 116.215,192.454 113.882,192.454 111.5,193.5C 111.786,191.723 112.453,190.056 113.5,188.5C 112.717,185.899 112.384,183.399 112.5,181C 112.759,179.739 113.426,178.739 114.5,178C 113.359,176.383 112.526,174.55 112,172.5C 110.706,173.854 110.54,175.188 111.5,176.5C 110.167,177.833 108.833,177.833 107.5,176.5C 109.335,175.572 109.668,174.406 108.5,173C 98.9798,173.058 89.3132,172.891 79.5,172.5C 79.5,173.5 79.5,174.5 79.5,175.5C 78.5,175.5 77.5,175.5 76.5,175.5C 76.67,174.178 76.3366,173.011 75.5,172C 71.9748,171.821 68.6414,171.321 65.5,170.5 Z"/></g>
<g><path style="opacity:0.576" fill="#040e49" d="M 669.5,188.5 C 683.042,188.579 696.708,188.579 710.5,188.5C 710.278,179.215 705.945,172.715 697.5,169C 682.606,166.937 673.272,173.104 669.5,187.5C 668.805,181.358 671.138,176.191 676.5,172C 694.963,160.876 706.963,165.709 712.5,186.5C 712.43,187.772 712.097,188.938 711.5,190C 697.475,190.237 683.475,190.737 669.5,191.5C 669.5,190.5 669.5,189.5 669.5,188.5 Z"/></g>
<g><path style="opacity:0.749" fill="#060a27" d="M 442.5,177.5 C 445.137,178.63 447.803,178.63 450.5,177.5C 447.657,181.234 444.99,181.234 442.5,177.5 Z"/></g>
<g><path style="opacity:1" fill="#062175" d="M 394.5,174.5 C 395.246,202.263 395.246,229.929 394.5,257.5C 383.5,257.5 372.5,257.5 361.5,257.5C 361.5,256.833 361.5,256.167 361.5,255.5C 371.682,256.682 381.682,256.682 391.5,255.5C 392.328,237.971 392.661,220.638 392.5,203.5C 392.292,200.815 391.125,200.149 389,201.5C 386.861,197.562 387.028,193.729 389.5,190C 388.591,188.211 388.424,186.377 389,184.5C 389.333,184.833 389.667,185.167 390,185.5C 390.163,183.324 390.996,181.491 392.5,180C 392.167,179.667 391.833,179.333 391.5,179C 392.781,177.591 393.781,176.091 394.5,174.5 Z"/></g>
<g><path style="opacity:1" fill="#03104d" d="M 640.5,170.5 C 639.93,177.972 638.097,184.972 635,191.5C 634.333,198.833 634.333,206.167 635,213.5C 636.742,219.098 638.242,224.765 639.5,230.5C 643.805,237.133 648.472,243.466 653.5,249.5C 650.944,248.457 648.777,246.79 647,244.5C 631.56,223.751 628.227,201.085 637,176.5C 637.716,174.121 638.883,172.121 640.5,170.5 Z"/></g>
<g><path style="opacity:0.675" fill="#020e45" d="M 626.5,143.5 C 627.659,154.993 627.826,166.659 627,178.5C 625.989,179.337 624.822,179.67 623.5,179.5C 604.777,177.997 593.777,186.33 590.5,204.5C 590.5,202.833 590.5,201.167 590.5,199.5C 592.131,191.214 596.464,184.881 603.5,180.5C 603.5,180.167 603.5,179.833 603.5,179.5C 611.001,178.849 618.501,178.182 626,177.5C 626.5,166.172 626.667,154.838 626.5,143.5 Z"/></g>
<g><path style="opacity:1" fill="#02217e" d="M 211.5,247.5 C 211.38,246.414 210.713,245.747 209.5,245.5C 207.091,245.915 204.758,246.582 202.5,247.5C 199.97,250.181 197.304,252.514 194.5,254.5C 192.526,255.906 190.526,257.406 188.5,259C 178.934,261.119 169.268,261.785 159.5,261C 157.105,259.402 154.772,259.236 152.5,260.5C 151.833,260.5 151.5,260.167 151.5,259.5C 150.84,256.351 148.84,254.851 145.5,255C 141.977,250.8 138.81,246.3 136,241.5C 135.486,236.112 134.653,230.779 133.5,225.5C 134.542,221.332 134.542,217.332 133.5,213.5C 134.5,211.5 135.5,209.5 136.5,207.5C 140.272,204.906 143.939,202.073 147.5,199C 151.811,198.054 155.811,196.554 159.5,194.5C 162.319,194.869 165.152,195.202 168,195.5C 178.32,192.675 188.82,191.841 199.5,193C 196.77,194.232 196.937,195.065 200,195.5C 202.233,194.027 204.233,194.36 206,196.5C 207.288,199.848 209.121,202.848 211.5,205.5C 210.315,206.853 208.981,208.02 207.5,209C 208.059,209.725 208.392,210.558 208.5,211.5C 206.151,213.204 205.151,215.537 205.5,218.5C 206.822,218.67 207.989,218.337 209,217.5C 211.222,220.168 213.722,222.501 216.5,224.5C 215.94,226.854 215.273,229.187 214.5,231.5C 211.986,233.257 209.319,234.757 206.5,236C 207.552,237.716 206.886,238.716 204.5,239C 205.308,239.308 205.975,239.808 206.5,240.5C 205.754,241.736 205.421,243.07 205.5,244.5C 206.5,244.5 207.5,244.5 208.5,244.5C 208.351,243.448 208.517,242.448 209,241.5C 210.512,240.743 211.846,239.743 213,238.5C 215.736,240.029 215.902,241.529 213.5,243C 215.056,245.501 214.389,247.001 211.5,247.5 Z M 199.5,228.5 C 191.543,236.392 182.543,237.892 172.5,233C 166.406,224.902 167.74,218.235 176.5,213C 185.03,210.861 193.697,210.027 202.5,210.5C 202.783,216.747 201.783,222.747 199.5,228.5 Z"/></g>
<g><path style="opacity:0.933" fill="#061350" d="M 462.5,190.5 C 462.611,191.117 462.944,191.617 463.5,192C 460.167,192.333 456.833,192.667 453.5,193C 450.664,195.584 447.331,196.751 443.5,196.5C 449.127,192.515 455.46,190.515 462.5,190.5 Z"/></g>
<g><path style="opacity:0.938" fill="#06155c" d="M 259.5,156.5 C 259.833,156.5 260.167,156.5 260.5,156.5C 260.181,161.363 260.514,166.03 261.5,170.5C 261.333,198.835 261.5,227.169 262,255.5C 263.067,256.191 264.234,256.691 265.5,257C 275.494,257.5 285.494,257.666 295.5,257.5C 295.333,237.164 295.5,216.831 296,196.5C 296.876,194.242 298.043,192.242 299.5,190.5C 298.735,193.096 298.401,195.763 298.5,198.5C 296.512,217.471 295.846,236.804 296.5,256.5C 296.586,257.496 296.252,258.329 295.5,259C 283.838,259.5 272.171,259.667 260.5,259.5C 260.567,258.041 260.234,256.708 259.5,255.5C 258.62,221.957 258.62,188.957 259.5,156.5 Z"/></g>
<g><path style="opacity:0.88" fill="#0a206d" d="M 119.5,196.5 C 120.404,197.209 120.737,198.209 120.5,199.5C 120.5,200.5 120.5,201.5 120.5,202.5C 102.659,202.17 84.9921,202.503 67.5,203.5C 67.1667,203.5 66.8333,203.5 66.5,203.5C 65.2617,203.19 65.2617,202.69 66.5,202C 70.1516,201.501 73.8183,201.335 77.5,201.5C 77.2148,199.712 77.5481,198.045 78.5,196.5C 79.731,197.651 79.731,198.817 78.5,200C 85.9785,200.677 93.1452,200.511 100,199.5C 104.182,200.134 108.349,200.801 112.5,201.5C 113.244,200.009 113.91,198.509 114.5,197C 115.167,196.333 115.833,196.333 116.5,197C 118.181,200.466 119.181,200.3 119.5,196.5 Z"/></g>
<g><path style="opacity:0.41" fill="#0b1a4c" d="M 120.5,199.5 C 120.833,199.5 121.167,199.5 121.5,199.5C 121.5,200.833 121.5,202.167 121.5,203.5C 103.5,203.5 85.5,203.5 67.5,203.5C 84.9921,202.503 102.659,202.17 120.5,202.5C 120.5,201.5 120.5,200.5 120.5,199.5 Z"/></g>
<g><path style="opacity:0.639" fill="#071043" d="M 158.5,192.5 C 159.338,192.842 159.672,193.508 159.5,194.5C 155.811,196.554 151.811,198.054 147.5,199C 143.939,202.073 140.272,204.906 136.5,207.5C 141.752,199.534 149.085,194.534 158.5,192.5 Z"/></g>
<g><path style="opacity:0.131" fill="#050e4b" d="M 298.5,198.5 C 297.55,217.806 297.217,237.14 297.5,256.5C 297.167,256.5 296.833,256.5 296.5,256.5C 295.846,236.804 296.512,217.471 298.5,198.5 Z"/></g>
<g><path style="opacity:0.987" fill="#081c6d" d="M 738.5,170.5 C 740.234,172.09 741.4,174.09 742,176.5C 742.671,177.252 743.504,177.586 744.5,177.5C 747.498,188.488 748.164,199.488 746.5,210.5C 727.167,210.5 707.833,210.5 688.5,210.5C 706.993,209.503 725.659,209.17 744.5,209.5C 744.213,205.277 743.546,201.11 742.5,197C 743.586,192.208 743.753,187.375 743,182.5C 741.186,178.547 739.686,174.547 738.5,170.5 Z"/></g>
<g><path style="opacity:0.688" fill="#081854" d="M 344.5,173.5 C 344.5,173.167 344.5,172.833 344.5,172.5C 349.762,172.195 354.928,172.529 360,173.5C 360.168,201.003 360.668,228.336 361.5,255.5C 361.5,256.167 361.5,256.833 361.5,257.5C 360.883,257.389 360.383,257.056 360,256.5C 359.827,250.984 359.327,245.651 358.5,240.5C 358.5,218.167 358.5,195.833 358.5,173.5C 353.833,173.5 349.167,173.5 344.5,173.5 Z"/></g>
<g><path style="opacity:0.658" fill="#0a1b55" d="M 688.5,210.5 C 707.833,210.5 727.167,210.5 746.5,210.5C 721.18,212.162 695.513,213.162 669.5,213.5C 670.372,215.45 671.039,217.45 671.5,219.5C 670.25,219.423 669.417,218.756 669,217.5C 668.242,215.231 668.409,213.064 669.5,211C 675.825,210.5 682.158,210.334 688.5,210.5 Z"/></g>
<g><path style="opacity:0.282" fill="#091144" d="M 531.5,173.5 C 532.332,191.996 532.832,210.662 533,229.5C 534.654,232.232 537.154,233.565 540.5,233.5C 540.5,235.167 540.5,236.833 540.5,238.5C 539.842,237.602 539.176,236.602 538.5,235.5C 535.913,234.946 533.58,233.946 531.5,232.5C 531.5,212.833 531.5,193.167 531.5,173.5 Z"/></g>
<g><path style="opacity:0.92" fill="#081754" d="M 403.5,172.5 C 403.5,172.833 403.5,173.167 403.5,173.5C 401.239,174.328 399.072,174.661 397,174.5C 396.981,190.555 396.814,206.555 396.5,222.5C 395.669,234.326 395.169,246.326 395,258.5C 389.412,259.156 383.745,259.489 378,259.5C 372.124,259.495 366.624,258.829 361.5,257.5C 372.5,257.5 383.5,257.5 394.5,257.5C 395.246,229.929 395.246,202.263 394.5,174.5C 394.825,172.868 395.825,171.868 397.5,171.5C 399.453,172.156 401.453,172.489 403.5,172.5 Z"/></g>
<g><path style="opacity:0.091" fill="#021048" d="M 65.5,205.5 C 65.5,222.5 65.5,239.5 65.5,256.5C 64.6906,257.469 63.6906,258.302 62.5,259C 50.3262,259.826 38.3262,259.66 26.5,258.5C 37.505,258.667 48.505,258.5 59.5,258C 60.938,257.781 62.2713,257.281 63.5,256.5C 64.1534,239.372 64.8201,222.372 65.5,205.5 Z"/></g>
<g><path style="opacity:1" fill="#051254" d="M 485.5,236.5 C 485.5,235.833 485.5,235.167 485.5,234.5C 494.245,228.985 497.578,220.985 495.5,210.5C 486.263,209.968 477.263,211.135 468.5,214C 465.02,216.297 463.02,219.464 462.5,223.5C 461.378,225.288 461.211,227.288 462,229.5C 463.479,232.305 465.312,234.805 467.5,237C 471.821,237.499 476.154,237.666 480.5,237.5C 476.019,238.648 471.352,238.815 466.5,238C 465.331,236.164 463.664,234.998 461.5,234.5C 460.337,228.863 460.17,223.196 461,217.5C 469.345,210.675 479.012,207.341 490,207.5C 492.424,207.53 494.757,207.863 497,208.5C 498.409,216.92 497.242,224.92 493.5,232.5C 490.34,232.983 487.674,234.316 485.5,236.5 Z M 485.5,234.5 C 477.343,238.123 470.176,236.789 464,230.5C 462.798,228.323 462.298,225.989 462.5,223.5C 463.02,219.464 465.02,216.297 468.5,214C 477.263,211.135 486.263,209.968 495.5,210.5C 497.578,220.985 494.245,228.985 485.5,234.5 Z"/></g>
<g><path style="opacity:0.647" fill="#04104a" d="M 671.5,219.5 C 680.7,231.07 692.7,235.236 707.5,232C 714.032,230.323 720.366,228.156 726.5,225.5C 725.284,227.451 723.618,228.951 721.5,230C 716.979,230.729 712.646,232.063 708.5,234C 701.5,234.667 694.5,234.667 687.5,234C 683.427,232.796 679.761,230.796 676.5,228C 673.404,225.971 671.738,223.138 671.5,219.5 Z"/></g>
<g><path style="opacity:0.898" fill="#040d3d" d="M 742.5,244.5 C 741.115,243.426 739.949,242.093 739,240.5C 736.619,236.032 734.619,231.365 733,226.5C 730.959,225.577 728.792,225.244 726.5,225.5C 728.151,224.03 729.985,222.697 732,221.5C 736.043,228.919 739.543,236.586 742.5,244.5 Z"/></g>
<g><path style="opacity:0.518" fill="#05124c" d="M 199.5,228.5 C 198.073,231.764 195.739,234.264 192.5,236C 185.89,237.441 179.224,237.774 172.5,237C 167.852,231.74 166.352,225.573 168,218.5C 170.599,215.777 173.099,212.943 175.5,210C 185.524,209.638 195.357,209.138 205,208.5C 204.875,214.136 204.542,219.802 204,225.5C 202.729,226.883 201.229,227.883 199.5,228.5 Z M 199.5,228.5 C 201.783,222.747 202.783,216.747 202.5,210.5C 193.697,210.027 185.03,210.861 176.5,213C 167.74,218.235 166.406,224.902 172.5,233C 182.543,237.892 191.543,236.392 199.5,228.5 Z"/></g>
<g><path style="opacity:0.616" fill="#031145" d="M 462.5,223.5 C 462.298,225.989 462.798,228.323 464,230.5C 470.176,236.789 477.343,238.123 485.5,234.5C 485.5,235.167 485.5,235.833 485.5,236.5C 484.081,237.451 482.415,237.784 480.5,237.5C 476.154,237.666 471.821,237.499 467.5,237C 465.312,234.805 463.479,232.305 462,229.5C 461.211,227.288 461.378,225.288 462.5,223.5 Z"/></g>
<g><path style="opacity:0.604" fill="#ff094b" d="M 553.5,163.5 C 553.5,177.833 553.5,192.167 553.5,206.5C 553.811,218.247 553.478,229.914 552.5,241.5C 552.167,241.5 551.833,241.5 551.5,241.5C 551.5,225.5 551.5,209.5 551.5,193.5C 552.167,183.5 552.833,173.5 553.5,163.5 Z"/></g>
<g><path style="opacity:0.918" fill="#050f4b" d="M 443.5,196.5 C 438.246,201.605 433.413,207.271 429,213.5C 423.011,234.417 429.511,249.75 448.5,259.5C 448.376,260.107 448.043,260.44 447.5,260.5C 432.606,254.614 424.94,243.447 424.5,227C 424.872,214.252 430.205,204.252 440.5,197C 441.448,196.517 442.448,196.351 443.5,196.5 Z"/></g>
<g><path style="opacity:1" fill="#041f74" d="M 603.5,180.5 C 596.464,184.881 592.131,191.214 590.5,199.5C 589.71,200.609 589.21,201.942 589,203.5C 588.5,221.164 588.333,238.83 588.5,256.5C 583.04,257.829 577.207,258.496 571,258.5C 565.167,258.333 559.333,258.167 553.5,258C 552.527,252.593 552.193,247.093 552.5,241.5C 553.478,229.914 553.811,218.247 553.5,206.5C 554.831,222.902 554.831,239.402 553.5,256C 556.426,257.765 559.092,257.265 561.5,254.5C 566.261,256.37 571.261,257.037 576.5,256.5C 576.739,254.533 576.406,252.699 575.5,251C 577.739,247.395 578.406,243.562 577.5,239.5C 578.984,242.12 580.317,244.954 581.5,248C 580.409,250.064 580.242,252.231 581,254.5C 582.067,256.283 583.567,256.783 585.5,256C 584.376,255.751 583.376,255.251 582.5,254.5C 583.304,253.059 583.971,251.559 584.5,250C 582.777,246.388 583.61,243.555 587,241.5C 587.863,231.76 587.363,222.094 585.5,212.5C 586.487,206.398 587.654,200.398 589,194.5C 591.249,191.67 593.249,188.67 595,185.5C 595.251,183.567 595.751,181.734 596.5,180C 598.797,179.982 601.131,180.149 603.5,180.5 Z"/></g>
<g><path style="opacity:0.91" fill="#03135a" d="M 590.5,199.5 C 590.5,201.167 590.5,202.833 590.5,204.5C 590.5,205.5 590.5,206.5 590.5,207.5C 589.833,223.833 589.167,240.167 588.5,256.5C 588.333,238.83 588.5,221.164 589,203.5C 589.21,201.942 589.71,200.609 590.5,199.5 Z"/></g>
<g><path style="opacity:1" fill="#081967" d="M 531.5,232.5 C 533.58,233.946 535.913,234.946 538.5,235.5C 539.176,236.602 539.842,237.602 540.5,238.5C 540.5,238.833 540.5,239.167 540.5,239.5C 539.815,245.567 539.149,251.734 538.5,258C 528.385,261.843 518.718,261.343 509.5,256.5C 514.077,257.385 518.577,258.385 523,259.5C 527.823,258.725 532.657,258.058 537.5,257.5C 537.666,251.158 537.5,244.825 537,238.5C 534.614,237.599 532.781,235.599 531.5,232.5 Z"/></g>
<g><path style="opacity:0.464" fill="#0b163e" d="M 396.5,222.5 C 396.5,235.167 396.5,247.833 396.5,260.5C 384.149,260.832 371.815,260.499 359.5,259.5C 358.54,253.227 358.207,246.893 358.5,240.5C 359.327,245.651 359.827,250.984 360,256.5C 360.383,257.056 360.883,257.389 361.5,257.5C 366.624,258.829 372.124,259.495 378,259.5C 383.745,259.489 389.412,259.156 395,258.5C 395.169,246.326 395.669,234.326 396.5,222.5 Z"/></g>
<g><path style="opacity:1" fill="#041b6f" d="M 27.5,106.5 C 27.3333,149.501 27.5,192.501 28,235.5C 28.2312,241.371 28.7312,247.204 29.5,253C 29.2645,253.873 28.9312,254.707 28.5,255.5C 36.4969,256.262 44.4969,256.928 52.5,257.5C 54.299,257.423 55.9656,256.923 57.5,256C 54.4133,255.741 51.4133,255.241 48.5,254.5C 50.5755,252.281 52.9088,250.281 55.5,248.5C 57.6195,250.4 59.9528,252.066 62.5,253.5C 62.8413,236.813 63.8413,220.479 65.5,204.5C 65.5,204.833 65.5,205.167 65.5,205.5C 64.8201,222.372 64.1534,239.372 63.5,256.5C 62.2713,257.281 60.938,257.781 59.5,258C 48.505,258.5 37.505,258.667 26.5,258.5C 26.5,257.833 26.5,257.167 26.5,256.5C 26.1678,206.331 26.5011,156.331 27.5,106.5 Z"/></g>
<g><path style="opacity:0.467" fill="#050838" d="M 207.5,250.5 C 211.817,253.486 215.817,256.82 219.5,260.5C 214.303,258.573 210.303,255.239 207.5,250.5 Z"/></g>
<g><path style="opacity:0.784" fill="#030f46" d="M 540.5,239.5 C 540.666,245.842 540.5,252.175 540,258.5C 529.172,263.923 518.339,263.756 507.5,258C 504.577,255.584 502.243,252.75 500.5,249.5C 502.167,249.5 503.833,249.5 505.5,249.5C 505.115,252.89 506.448,255.223 509.5,256.5C 518.718,261.343 528.385,261.843 538.5,258C 539.149,251.734 539.815,245.567 540.5,239.5 Z"/></g>
<g><path style="opacity:0.424" fill="#08134f" d="M 133.5,213.5 C 134.542,217.332 134.542,221.332 133.5,225.5C 134.653,230.779 135.486,236.112 136,241.5C 138.81,246.3 141.977,250.8 145.5,255C 148.84,254.851 150.84,256.351 151.5,259.5C 142.512,256.011 136.346,249.678 133,240.5C 130.88,231.432 131.047,222.432 133.5,213.5 Z"/></g>
<g><path style="opacity:1" fill="#071861" d="M 239.5,209.5 C 239.334,216.508 239.5,223.508 240,230.5C 240.708,231.381 241.542,232.047 242.5,232.5C 242.75,233.922 243.583,234.922 245,235.5C 245.831,242.856 245.665,250.189 244.5,257.5C 242.78,258.955 240.78,259.788 238.5,260C 232.509,260.499 226.509,260.666 220.5,260.5C 220.167,260.5 219.833,260.5 219.5,260.5C 215.817,256.82 211.817,253.486 207.5,250.5C 207.013,249.527 206.513,248.527 206,247.5C 204.296,249.373 202.463,251.04 200.5,252.5C 198.5,253.167 196.5,253.833 194.5,254.5C 197.304,252.514 199.97,250.181 202.5,247.5C 204.758,246.582 207.091,245.915 209.5,245.5C 210.713,245.747 211.38,246.414 211.5,247.5C 211.343,248.873 211.51,250.207 212,251.5C 215.079,255.178 218.912,257.678 223.5,259C 229.518,259.332 235.518,258.999 241.5,258C 242,257.5 242.5,257 243,256.5C 243.667,250.5 243.667,244.5 243,238.5C 241.967,235.967 240.133,234.301 237.5,233.5C 236.507,228.88 236.173,224.214 236.5,219.5C 237.222,219.918 237.722,220.584 238,221.5C 238.176,217.312 238.676,213.312 239.5,209.5 Z"/></g>
<g><path style="opacity:0.878" fill="#091354" d="M 742.5,244.5 C 743.788,246.035 743.788,247.701 742.5,249.5C 730.696,257.369 717.696,261.702 703.5,262.5C 710.951,259.885 718.618,257.718 726.5,256C 727.743,254.846 728.743,253.512 729.5,252C 734.299,251.883 738.633,250.717 742.5,248.5C 742.5,247.167 742.5,245.833 742.5,244.5 Z"/></g>
<g><path style="opacity:0.854" fill="#051347" d="M 590.5,207.5 C 590.5,225.167 590.5,242.833 590.5,260.5C 577.829,260.667 565.162,260.5 552.5,260C 551.524,253.924 551.19,247.758 551.5,241.5C 551.833,241.5 552.167,241.5 552.5,241.5C 552.193,247.093 552.527,252.593 553.5,258C 559.333,258.167 565.167,258.333 571,258.5C 577.207,258.496 583.04,257.829 588.5,256.5C 589.167,240.167 589.833,223.833 590.5,207.5 Z"/></g>
<g><path style="opacity:0.151" fill="#0d173b" d="M 259.5,255.5 C 260.234,256.708 260.567,258.041 260.5,259.5C 272.171,259.667 283.838,259.5 295.5,259C 296.252,258.329 296.586,257.496 296.5,256.5C 296.833,256.5 297.167,256.5 297.5,256.5C 297.67,257.822 297.337,258.989 296.5,260C 284.153,260.833 271.82,260.666 259.5,259.5C 258.295,258.005 258.295,256.672 259.5,255.5 Z"/></g>
<g><path style="opacity:0.793" fill="#081443" d="M 242.5,232.5 C 243.708,233.234 245.041,233.567 246.5,233.5C 246.666,242.173 246.5,250.84 246,259.5C 237.484,262.809 228.984,263.143 220.5,260.5C 226.509,260.666 232.509,260.499 238.5,260C 240.78,259.788 242.78,258.955 244.5,257.5C 245.665,250.189 245.831,242.856 245,235.5C 243.583,234.922 242.75,233.922 242.5,232.5 Z"/></g>
<g><path style="opacity:0.885" fill="#05104d" d="M 200.5,252.5 C 194.411,258.376 187.077,261.876 178.5,263C 169.592,264.135 160.925,263.301 152.5,260.5C 154.772,259.236 157.105,259.402 159.5,261C 169.268,261.785 178.934,261.119 188.5,259C 190.526,257.406 192.526,255.906 194.5,254.5C 196.5,253.833 198.5,253.167 200.5,252.5 Z"/></g>
<g><path style="opacity:0.86" fill="#0a155b" d="M 499.5,248.5 C 485.486,262.404 468.819,266.737 449.5,261.5C 454.162,260.536 458.996,260.536 464,261.5C 471.797,260.677 479.297,258.843 486.5,256C 488.067,251.88 491.067,249.714 495.5,249.5C 495.694,244.597 497.027,244.264 499.5,248.5 Z"/></g>
<g><path style="opacity:0.653" fill="#05145c" d="M 653.5,249.5 C 663.388,253.61 673.388,257.444 683.5,261C 689.5,261.333 695.5,261.667 701.5,262C 702.056,262.383 702.389,262.883 702.5,263.5C 688.917,264.75 675.917,262.583 663.5,257C 659.7,255.021 656.366,252.521 653.5,249.5 Z"/></g>
</svg>
